<?xml version="1.0" encoding="UTF-8"?>
<!DOCTYPE svg PUBLIC "-//W3C//DTD SVG 1.1//EN" "http://www.w3.org/Graphics/SVG/1.1/DTD/svg11.dtd">
<svg xmlns="http://www.w3.org/2000/svg" version="1.1" width="108px" height="108px" style="shape-rendering:geometricPrecision; text-rendering:geometricPrecision; image-rendering:optimizeQuality; fill-rule:evenodd; clip-rule:evenodd" xmlns:xlink="http://www.w3.org/1999/xlink">
<g><path style="opacity:1" fill="#fcfbfb" d="M -0.5,-0.5 C 35.5,-0.5 71.5,-0.5 107.5,-0.5C 107.5,35.5 107.5,71.5 107.5,107.5C 71.5,107.5 35.5,107.5 -0.5,107.5C -0.5,71.5 -0.5,35.5 -0.5,-0.5 Z"/></g>
<g><path style="opacity:1" fill="#363636" d="M 50.5,81.5 C 50.6663,88.8409 50.4997,96.1742 50,103.5C 49.3292,102.748 48.4959,102.414 47.5,102.5C 34.4982,95.6684 21.8315,88.3351 9.5,80.5C 9.18098,62.7566 9.51432,45.0899 10.5,27.5C 24.7086,18.8076 39.2086,10.4743 54,2.5C 60.5662,6.20056 67.0662,10.0339 73.5,14C 59.0822,22.6261 44.5822,31.1261 30,39.5C 29.3333,49.5 29.3333,59.5 30,69.5C 36.943,73.3855 43.7763,77.3855 50.5,81.5 Z"/></g>
<g><path style="opacity:1" fill="#393838" d="M 97.5,28.5 C 91.5359,32.1523 85.5359,35.819 79.5,39.5C 79.1667,39.5 78.8333,39.5 78.5,39.5C 78.1667,39.5 77.8333,39.5 77.5,39.5C 71.8606,36.3454 66.1939,33.1788 60.5,30C 66.5,26.3333 72.5,22.6667 78.5,19C 79.8333,18.3333 81.1667,18.3333 82.5,19C 87.9026,21.6916 92.9026,24.8583 97.5,28.5 Z"/></g>
<g><path style="opacity:1" fill="#777777" d="M 10.5,27.5 C 9.51432,45.0899 9.18098,62.7566 9.5,80.5C 8.83355,71.8398 8.50022,63.0064 8.5,54C 8.50179,44.8071 9.16845,35.9738 10.5,27.5 Z"/></g>
<g><path style="opacity:1" fill="#ee1c25" d="M 97.5,28.5 C 98.8273,46.0045 98.8273,63.6712 97.5,81.5C 92.1394,84.512 86.8061,87.512 81.5,90.5C 79.5142,73.8662 78.8476,56.8662 79.5,39.5C 85.5359,35.819 91.5359,32.1523 97.5,28.5 Z"/></g>
<g><path style="opacity:1" fill="#3a3838" d="M 74.5,43.5 C 67.6678,46.4124 61.3344,50.0791 55.5,54.5C 55.1667,54.5 54.8333,54.5 54.5,54.5C 54.1667,54.5 53.8333,54.5 53.5,54.5C 48.0607,51.2724 42.7274,47.7724 37.5,44C 42.9964,40.0842 48.6631,36.4175 54.5,33C 57.7025,33.0863 60.7025,34.0863 63.5,36C 67.3447,38.363 71.0113,40.863 74.5,43.5 Z"/></g>
<g><path style="opacity:1" fill="#ee1c25" d="M 74.5,43.5 C 74.8187,60.9102 74.4854,78.2436 73.5,95.5C 67.9647,98.7674 62.2981,101.767 56.5,104.5C 55.5035,88.0084 55.1702,71.3417 55.5,54.5C 61.3344,50.0791 67.6678,46.4124 74.5,43.5 Z"/></g>
<g><path style="opacity:1" fill="#f9abaf" d="M 74.5,43.5 C 75.1664,51.9934 75.4998,60.6601 75.5,69.5C 75.4981,78.5267 74.8315,87.1934 73.5,95.5C 74.4854,78.2436 74.8187,60.9102 74.5,43.5 Z"/></g>
<g><path style="opacity:1" fill="#fbc6c9" d="M 53.5,54.5 C 53.8333,54.5 54.1667,54.5 54.5,54.5C 53.8476,71.8662 54.5142,88.8662 56.5,105.5C 55.791,106.404 54.791,106.737 53.5,106.5C 53.5,89.1667 53.5,71.8333 53.5,54.5 Z"/></g>
<g><path style="opacity:1" fill="#fcd8da" d="M 77.5,39.5 C 77.8333,39.5 78.1667,39.5 78.5,39.5C 77.8473,57.1989 78.514,74.5322 80.5,91.5C 79.791,92.404 78.791,92.7373 77.5,92.5C 77.5,74.8333 77.5,57.1667 77.5,39.5 Z"/></g>
<g><path style="opacity:1" fill="#f3565d" d="M 78.5,39.5 C 78.8333,39.5 79.1667,39.5 79.5,39.5C 78.8476,56.8662 79.5142,73.8662 81.5,90.5C 81.5,91.1667 81.1667,91.5 80.5,91.5C 78.514,74.5322 77.8473,57.1989 78.5,39.5 Z"/></g>
<g><path style="opacity:1" fill="#f24c54" d="M 54.5,54.5 C 54.8333,54.5 55.1667,54.5 55.5,54.5C 55.1702,71.3417 55.5035,88.0084 56.5,104.5C 56.5,104.833 56.5,105.167 56.5,105.5C 54.5142,88.8662 53.8476,71.8662 54.5,54.5 Z"/></g>
<g><path style="opacity:1" fill="#5d5d5d" d="M 50.5,81.5 C 50.8333,81.5 51.1667,81.5 51.5,81.5C 51.8254,89.3516 51.492,97.0182 50.5,104.5C 48.9731,104.573 47.9731,103.906 47.5,102.5C 48.4959,102.414 49.3292,102.748 50,103.5C 50.4997,96.1742 50.6663,88.8409 50.5,81.5 Z"/></g>
<g><path style="opacity:1" fill="#cdcdcd" d="M 51.5,81.5 C 52.8204,89.3428 52.8204,97.3428 51.5,105.5C 50.8933,105.376 50.56,105.043 50.5,104.5C 51.492,97.0182 51.8254,89.3516 51.5,81.5 Z"/></g>
</svg>
